<?xml version="1.0" encoding="UTF-8" standalone="no"?>
<svg
   xmlns:dc="http://purl.org/dc/elements/1.1/"
   xmlns:cc="http://creativecommons.org/ns#"
   xmlns:rdf="http://www.w3.org/1999/02/22-rdf-syntax-ns#"
   xmlns:svg="http://www.w3.org/2000/svg"
   xmlns="http://www.w3.org/2000/svg"
   xmlns:sodipodi="http://sodipodi.sourceforge.net/DTD/sodipodi-0.dtd"
   xmlns:inkscape="http://www.inkscape.org/namespaces/inkscape"
   viewBox="0 0 25 25"
   width="25"
   height="25"
   version="1.1"
   id="svg15"
   sodipodi:docname="github.svg"
   inkscape:version="0.92.3 (2405546, 2018-03-11)">
  <metadata
     id="metadata21">
    <rdf:RDF>
      <cc:Work
         rdf:about="">
        <dc:format>image/svg+xml</dc:format>
        <dc:type
           rdf:resource="http://purl.org/dc/dcmitype/StillImage" />
        <dc:title></dc:title>
      </cc:Work>
    </rdf:RDF>
  </metadata>
  <defs
     id="defs19" />
  <sodipodi:namedview
     pagecolor="#ffffff"
     bordercolor="#666666"
     borderopacity="1"
     objecttolerance="10"
     gridtolerance="10"
     guidetolerance="10"
     inkscape:pageopacity="0"
     inkscape:pageshadow="2"
     inkscape:window-width="1007"
     inkscape:window-height="630"
     id="namedview17"
     showgrid="false"
     inkscape:zoom="4.9166667"
     inkscape:cx="20"
     inkscape:cy="20"
     inkscape:window-x="0"
     inkscape:window-y="0"
     inkscape:window-maximized="0"
     inkscape:current-layer="svg15"
     fit-margin-top="0"
     fit-margin-left="0"
     fit-margin-right="0"
     fit-margin-bottom="0" />
  <linearGradient
     id="rL2wppHyxHVbobwndsT6Ca"
     x1="4"
     x2="44"
     y1="23.507999"
     y2="23.507999"
     gradientUnits="userSpaceOnUse"
     gradientTransform="matrix(0.625,0,0,0.625,-2.5,-2.5)">
    <stop
       offset="0"
       stop-color="#4c4c4c"
       id="stop2" />
    <stop
       offset="1"
       stop-color="#343434"
       id="stop4" />
  </linearGradient>
  <path
     d="M 12.5,0 C 5.59625,0 0,5.59625 0,12.5 0,18.054375 3.625625,22.756875 8.6375,24.385 h 7.725 C 21.374375,22.756875 25,18.054375 25,12.5 25,5.59625 19.40375,0 12.5,0 Z"
     id="path7"
     style="fill:url(#rL2wppHyxHVbobwndsT6Ca);stroke-width:0.625"
     inkscape:connector-curvature="0" />
  <path
     d="M 16.25625,23.7475 16.25,20.12375 c 0,-0.586875 -0.1375,-1.16 -0.40125,-1.679375 3.525625,-0.708125 5.24125,-2.7925 5.24125,-6.360625 0,-1.409375 -0.415625,-2.65375 -1.235,-3.7 0.0625,-0.198125 0.10875,-0.403125 0.1375,-0.613125 0.1175,-0.855625 -0.01438,-1.415 -0.120625,-1.865 l -0.01687,-0.0725 c -0.11625,-0.4975 -0.255625,-0.8525 -0.26125,-0.8675 l -0.06938,-0.17625 -0.06938,-0.17625 -0.18875,-0.02 -0.189375,-0.02 c 0,0 -0.124375,-0.01313 -0.313125,-0.01313 -0.261875,0 -0.65,0.02625 -1.016875,0.150625 l -0.1225,0.04125 C 17.161875,4.9075 16.725,5.055 16.11375,5.42 15.935,5.526875 15.739375,5.64875 15.53,5.785 14.58375,5.550625 13.565625,5.43125 12.5,5.43125 c -1.07625,0 -2.103125,0.12 -3.055625,0.356875 C 9.2325,5.650625 9.035625,5.5275 8.855625,5.42 8.244375,5.055 7.8075,4.908125 7.345,4.751875 L 7.2225,4.710625 C 6.856875,4.58625 6.468125,4.56 6.20625,4.56 6.0175,4.56 5.893125,4.57313 5.893125,4.57313 l -0.18875,0.02 -0.1875,0.01938 -0.07,0.175625 L 5.37625,4.965 C 5.37,4.98125 5.230625,5.33625 5.114375,5.834375 L 5.0975,5.90625 C 4.99125,6.355625 4.859375,6.915625 4.976875,7.770625 c 0.03,0.21625 0.078125,0.428125 0.14375,0.631875 -0.803125,1.04125 -1.21,2.27875 -1.21,3.68125 0,3.559375 1.7175,5.6425 5.248125,6.35625 C 9.0375,18.6825 8.943125,18.93875 8.87625,19.205 8.753125,19.24688 8.64,19.275 8.54,19.29063 8.39125,19.31313 8.235625,19.32438 8.078125,19.32438 7.649375,19.32438 7.3125,19.24063 7.18125,19.162505 6.985625,19.046255 6.63625,18.70813 6.2975,18.213755 6.008125,17.791875 5.556875,17.24 5.0525,17.009375 4.61625,16.81 4.154375,16.695625 3.784375,16.695625 c -0.08625,0 -0.165625,0.0063 -0.235,0.0175 -0.323125,0.05125 -0.593125,0.22875 -0.74,0.4875 C 2.6825,17.42375 2.6625,17.68375 2.754375,17.91375 2.89125,18.25625 3.28625,18.529375 3.59375,18.698125 3.745,18.78125 4.071875,19.085 4.2625,19.39125 c 0.143125,0.23 0.209375,0.39375 0.30125,0.62 0.054375,0.134375 0.114375,0.280625 0.195625,0.4575 C 5.053125,21.1075 5.97,21.67125 6.07375,21.733125 6.5775,22.035 7.424375,22.131875 8.046875,22.16 l 0.07687,0.0019 c 0,0 6.25e-4,0 6.25e-4,0 0.15,0 0.35625,-0.01438 0.6275,-0.04438 v 1.633125 c 0.0013,0.330625 -0.335625,0.405625 -0.78125,0.39875 l 0.341875,0.115 C 9.621875,24.7325 11.028125,25 12.5,25 c 1.471875,0 2.878125,-0.2675 4.189375,-0.735 l 0.439375,-0.16375 c -0.444375,-0.015 -0.86875,-0.0875 -0.8725,-0.35375 z"
     id="path9"
     inkscape:connector-curvature="0"
     style="opacity:0.05;stroke-width:0.625" />
  <path
     d="M 16.738125,24.248125 C 16.484375,24.2775 15.9375,24.18 15.9375,23.75125 v -3.6275 c 0,-0.68375 -0.205,-1.344375 -0.585,-1.9075 3.696875,-0.598125 5.424375,-2.558125 5.424375,-6.1325 0,-1.398125 -0.42875,-2.62125 -1.274375,-3.63875 0.08563,-0.228125 0.145625,-0.46875 0.18,-0.716875 0.109375,-0.7975 -0.01,-1.30375 -0.115,-1.750625 L 19.55063,5.905 C 19.43938,5.429375 19.30813,5.094375 19.302505,5.080625 l -0.06937,-0.17625 -0.189375,-0.02 c 0,0 -0.11125,-0.01187 -0.280625,-0.01187 -0.238125,0 -0.59,0.02313 -0.91625,0.134375 l -0.1225,0.04125 c -0.44625,0.150625 -0.868125,0.2925 -1.450625,0.64 -0.2075,0.12375 -0.43875,0.269375 -0.688125,0.43375 C 14.6275,5.87125 13.590625,5.74375 12.5,5.74375 11.39875,5.74375 10.353125,5.871875 9.388125,6.125 9.13625,5.959375 8.90375,5.813125 8.695,5.688125 c -0.5825,-0.3475 -1.004375,-0.49 -1.450625,-0.64 l -0.1225,-0.04125 C 6.79625,4.89625 6.44375,4.8725 6.205625,4.8725 6.03625,4.8725 5.925,4.884375 5.925,4.884375 l -0.18875,0.02 L 5.665625,5.08125 C 5.66,5.095 5.52875,5.43 5.4175,5.905625 l -0.016875,0.0725 c -0.105625,0.446875 -0.225,0.9525 -0.115,1.75 0.035,0.254375 0.0975,0.500625 0.18625,0.73375 C 4.6425,9.474375 4.2225,10.69125 4.2225,12.08375 c 0,3.564375 1.72875,5.52375 5.42875,6.12875 C 9.404375,18.58125 9.231875,18.996875 9.143125,19.44 8.936875,19.52125 8.75,19.575 8.58625,19.6 8.421875,19.625 8.250625,19.6375 8.0775,19.6375 7.64625,19.6375 7.231875,19.55687 7.02125,19.431875 6.74625,19.26875 6.360625,18.860625 6.03875,18.39125 5.82,18.0725 5.384375,17.505625 4.92125,17.294375 4.524375,17.113125 4.11,17.00875 3.783125,17.00875 c -0.06875,0 -0.13125,0.005 -0.18625,0.01375 -0.22875,0.03625 -0.4175,0.1575 -0.5175,0.33375 -0.08,0.14 -0.093125,0.301875 -0.036875,0.4425 0.111875,0.28 0.52625,0.53125 0.699375,0.62625 0.209375,0.115 0.574375,0.465 0.78375,0.8025 0.156875,0.2525 0.23125,0.435625 0.325625,0.666875 0.053125,0.130625 0.11125,0.273125 0.19,0.445 0.206875,0.449375 0.845625,0.92 1.190625,1.126875 0.47125,0.2825 1.34625,0.36125 1.82625,0.3825 L 8.1275,21.85 c 0.186875,0 0.5,-0.02813 0.934375,-0.08438 v 1.985625 c 0,0.486875 -0.619375,0.50625 -0.77125,0.50625 -0.01938,0 0.314375,0.115 0.314375,0.115 C 9.831875,24.775 11.13875,25 12.5,25 c 1.36125,0 2.668125,-0.225 3.894375,-0.626875 0,0 0.363125,-0.1275 0.34375,-0.125 z"
     id="path11"
     inkscape:connector-curvature="0"
     style="opacity:0.07000002;stroke-width:0.625" />
  <path
     d="m 20.465,12.08375 c 0,-1.44375 -0.48875,-2.64125 -1.323125,-3.58 0.09063,-0.203125 0.185,-0.475625 0.231875,-0.818125 0.1075,-0.78125 -0.01938,-1.25 -0.126875,-1.70875 -0.1075,-0.45875 -0.234375,-0.78125 -0.234375,-0.78125 0,0 -0.57625,-0.05875 -1.064375,0.1075 C 17.46,5.469375 17.04,5.59625 16.434375,5.9575 16.15125,6.12625 15.86625,6.31125 15.640625,6.46125 14.67625,6.19375 13.615625,6.05625 12.5,6.05625 c -1.125625,0 -2.195625,0.138125 -3.166875,0.4075 C 9.106875,6.313125 8.82,6.126875 8.535,5.956875 7.929375,5.595625 7.509375,5.46875 7.02125,5.3025 6.533125,5.13625 5.956875,5.195 5.956875,5.195 5.956875,5.195 5.83,5.5175 5.7225,5.97625 5.615,6.435 5.488125,6.90375 5.595625,7.685 5.64375,8.03625 5.74125,8.31375 5.834375,8.518125 c -0.81875,0.933125 -1.29875,2.123125 -1.29875,3.565 0,3.739375 2.02,5.44625 5.700625,5.896875 -0.429375,0.45375 -0.7175,1.035 -0.814375,1.681875 C 9.18,19.768125 8.90125,19.868125 8.633125,19.908125 7.943125,20.0125 7.21375,19.908125 6.8625,19.7 6.51125,19.491875 6.094375,19.023125 5.781875,18.566875 5.518125,18.181875 5.1375,17.735 4.7925,17.5775 4.336875,17.369375 3.89375,17.29125 3.646875,17.33 c -0.2475,0.03937 -0.364375,0.22125 -0.3125,0.351875 0.051875,0.13 0.299375,0.325625 0.56,0.46875 0.260625,0.143125 0.664375,0.53375 0.89875,0.91125 0.26125,0.42125 0.3125,0.664375 0.53375,1.145625 0.155625,0.33875 0.688125,0.761875 1.0675,0.989375 0.325625,0.195625 0.97625,0.306875 1.68,0.33875 0.243125,0.01125 0.8175,-0.06 1.301875,-0.12875 v 2.34375 C 9.37625,24.15 9.010625,24.45375 8.631875,24.38375 9.8475,24.7925 11.145625,25 12.5,25 13.85375,25 15.151875,24.7925 16.36875,24.385 15.990625,24.45438 15.625,24.150625 15.625,23.75125 v -3.6275 c 0,-0.830625 -0.329375,-1.58125 -0.858125,-2.140625 3.65375,-0.43875 5.698125,-2.105 5.698125,-5.899375 z M 4.524375,17.954375 C 4.428125,17.905 4.37625,17.81375 4.40875,17.749375 4.44125,17.685 4.54625,17.673125 4.6425,17.7225 c 0.09625,0.04938 0.148125,0.140625 0.115625,0.205 -0.0325,0.06437 -0.1375,0.07625 -0.23375,0.02687 z m 0.7575,0.471875 C 5.23125,18.48125 5.1225,18.46375 5.03875,18.3875 4.955,18.31125 4.928125,18.204375 4.97875,18.149375 c 0.050625,-0.055 0.159375,-0.0375 0.243125,0.03875 0.08375,0.07625 0.110625,0.183125 0.06,0.238125 z m 0.47125,0.78125 c -0.06375,0.045 -0.171875,0.0031 -0.24125,-0.09375 -0.069375,-0.09688 -0.07375,-0.2125 -0.01,-0.2575 0.06375,-0.045 0.171875,-0.0031 0.24125,0.09375 0.06875,0.09687 0.07375,0.2125 0.01,0.2575 z M 6.43,19.795625 c -0.04312,0.07 -0.165625,0.07312 -0.273125,0.0075 -0.1075,-0.06563 -0.16,-0.175625 -0.116875,-0.245625 0.04313,-0.07 0.165625,-0.07312 0.273125,-0.0075 0.1075,0.06563 0.16,0.175625 0.116875,0.245625 z M 7.07,20.37125 C 6.936875,20.355 6.838125,20.27187 6.849375,20.185625 c 0.01062,-0.08625 0.1275,-0.1425 0.26,-0.12625 C 7.2425,20.075625 7.34125,20.158745 7.33,20.245 7.31938,20.33063 7.203125,20.3875 7.07,20.37125 Z m 1.031875,0.149375 C 7.96,20.5125 7.849375,20.43125 7.855,20.34 7.8606,20.24875 7.98,20.180625 8.121875,20.18875 c 0.141875,0.0081 0.2525,0.08938 0.246875,0.180625 -0.0056,0.09188 -0.125,0.159375 -0.266875,0.15125 z m 0.97375,-0.0975 c -0.15125,0 -0.27375,-0.07875 -0.27375,-0.175625 0,-0.09688 0.1225,-0.175625 0.27375,-0.175625 0.15125,0 0.27375,0.07875 0.27375,0.175625 0,0.09687 -0.123125,0.175625 -0.27375,0.175625 z"
     id="path13"
     inkscape:connector-curvature="0"
     style="fill:#ffffff;stroke-width:0.625" />
</svg>
