<?xml version="1.0" encoding="UTF-8" standalone="no"?>
<svg
   xmlns:dc="http://purl.org/dc/elements/1.1/"
   xmlns:cc="http://creativecommons.org/ns#"
   xmlns:rdf="http://www.w3.org/1999/02/22-rdf-syntax-ns#"
   xmlns:svg="http://www.w3.org/2000/svg"
   xmlns="http://www.w3.org/2000/svg"
   xmlns:sodipodi="http://sodipodi.sourceforge.net/DTD/sodipodi-0.dtd"
   xmlns:inkscape="http://www.inkscape.org/namespaces/inkscape"
   viewBox="0 0 15 15"
   width="15"
   height="15"
   version="1.1"
   id="svg15"
   sodipodi:docname="github2.svg"
   inkscape:version="0.92.3 (2405546, 2018-03-11)">
  <metadata
     id="metadata21">
    <rdf:RDF>
      <cc:Work
         rdf:about="">
        <dc:format>image/svg+xml</dc:format>
        <dc:type
           rdf:resource="http://purl.org/dc/dcmitype/StillImage" />
        <dc:title></dc:title>
      </cc:Work>
    </rdf:RDF>
  </metadata>
  <defs
     id="defs19" />
  <sodipodi:namedview
     pagecolor="#ffffff"
     bordercolor="#666666"
     borderopacity="1"
     objecttolerance="10"
     gridtolerance="10"
     guidetolerance="10"
     inkscape:pageopacity="0"
     inkscape:pageshadow="2"
     inkscape:window-width="817"
     inkscape:window-height="569"
     id="namedview17"
     showgrid="false"
     inkscape:zoom="4.9166667"
     inkscape:cx="24"
     inkscape:cy="24"
     inkscape:window-x="0"
     inkscape:window-y="0"
     inkscape:window-maximized="0"
     inkscape:current-layer="svg15" />
  <linearGradient
     id="rL2wppHyxHVbobwndsT6Ca"
     x1="4"
     x2="44"
     y1="23.507999"
     y2="23.507999"
     gradientUnits="userSpaceOnUse"
     gradientTransform="matrix(0.325,0,0,0.325,-0.14745763,-0.04576271)">
    <stop
       offset="0"
       stop-color="#4c4c4c"
       id="stop2" />
    <stop
       offset="1"
       stop-color="#343434"
       id="stop4" />
  </linearGradient>
  <path
     d="m 7.6525424,1.2542373 c -3.58995,0 -6.5,2.91005 -6.5,6.5 0,2.8882747 1.885325,5.3335747 4.4915,6.1801997 h 4.017 c 2.6061746,-0.846625 4.4914996,-3.291925 4.4914996,-6.1801997 0,-3.58995 -2.91005,-6.5 -6.4999996,-6.5 z"
     id="path7"
     style="fill:url(#rL2wppHyxHVbobwndsT6Ca);stroke-width:0.32499999"
     inkscape:connector-curvature="0" />
  <path
     d="m 9.6057924,13.602937 -0.00325,-1.88435 c 0,-0.305175 -0.0715,-0.6032 -0.20865,-0.873275 1.8333246,-0.368225 2.7254496,-1.4520997 2.7254496,-3.3075247 0,-0.732875 -0.216125,-1.37995 -0.6422,-1.924 0.0325,-0.103025 0.05655,-0.209625 0.0715,-0.318825 0.0611,-0.444925 -0.0075,-0.7358 -0.06273,-0.9698 l -0.0088,-0.0377 c -0.06045,-0.2587 -0.132925,-0.4433 -0.13585,-0.4511 l -0.03608,-0.09165 -0.03608,-0.09165 -0.09815,-0.0104 -0.09847,-0.0104 c 0,0 -0.06468,-0.0068 -0.162825,-0.0068 -0.136175,0 -0.338,0.01365 -0.528775,0.07832 l -0.0637,0.02145 c -0.240465,0.080905 -0.4676396,0.157605 -0.7854896,0.347405 -0.09295,0.055575 -0.194675,0.11895 -0.30355,0.1898 -0.49205,-0.121875 -1.021475,-0.18395 -1.5756,-0.18395 -0.55965,0 -1.093625,0.0624 -1.588925,0.185575 -0.110175,-0.0715 -0.21255,-0.135525 -0.30615,-0.191425 -0.31785,-0.1898 -0.545025,-0.266175 -0.785525,-0.347425 l -0.0637,-0.02145 c -0.190125,-0.064675 -0.392275,-0.078325 -0.52845,-0.078325 -0.09815,0 -0.162825,0.0068 -0.162825,0.0068 l -0.09815,0.0104 -0.0975,0.01008 -0.0364,0.09133 -0.036725,0.09199 c -0.00325,0.00845 -0.075725,0.19305 -0.136175,0.452075 l -0.00877,0.037375 c -0.05525,0.233675 -0.123825,0.524875 -0.062725,0.969475 0.0156,0.11245 0.040625,0.222625 0.07475,0.328575 -0.417625,0.54145 -0.6292,1.18495 -0.6292,1.91425 0,1.850875 0.8931,2.9340997 2.729025,3.3052497 -0.06305,0.1261 -0.112125,0.25935 -0.1469,0.3978 -0.064025,0.02177 -0.12285,0.0364 -0.17485,0.04453 -0.07735,0.0117 -0.158275,0.01755 -0.240175,0.01755 -0.22295,0 -0.398125,-0.04355 -0.466375,-0.08418 -0.101725,-0.06045 -0.2834,-0.236275 -0.45955,-0.49335 -0.150475,-0.219375 -0.385125,-0.50635 -0.6474,-0.626275 -0.22685,-0.1036747 -0.467025,-0.1631497 -0.659425,-0.1631497 -0.04485,0 -0.086125,0.0033 -0.1222,0.0091 -0.168025,0.02665 -0.308425,0.1189497 -0.3848,0.2534997 -0.065975,0.116025 -0.076375,0.251225 -0.0286,0.370825 0.071175,0.1781 0.276575,0.320125 0.436475,0.407875 0.07865,0.04322 0.248625,0.201175 0.34775,0.360425 0.074425,0.1196 0.108875,0.20475 0.15665,0.3224 0.028275,0.06987 0.059475,0.145925 0.101725,0.2379 0.15275,0.33215 0.629525,0.6253 0.683475,0.657475 0.26195,0.156975 0.702325,0.20735 1.026025,0.221975 l 0.039975,9.75e-4 c 0,0 3.25e-4,0 3.25e-4,0 0.078,0 0.18525,-0.0075 0.3263,-0.02307 v 0.849225 c 6.5e-4,0.171925 -0.174525,0.210925 -0.40625,0.20735 l 0.177775,0.0598 c 0.680875,0.24342 1.412125,0.38252 2.1775,0.38252 0.765375,0 1.496625,-0.1391 2.178475,-0.3822 l 0.2284746,-0.08515 c -0.2310746,-0.0078 -0.4517496,-0.0455 -0.4536996,-0.18395 z"
     id="path9"
     inkscape:connector-curvature="0"
     style="opacity:0.05;stroke-width:0.32499999" />
  <path
     d="m 9.8563674,13.863262 c -0.13195,0.01527 -0.416325,-0.03543 -0.416325,-0.258375 v -1.8863 c 0,-0.35555 -0.1066,-0.699075 -0.3042,-0.9919 1.9223746,-0.311025 2.8206746,-1.3302247 2.8206746,-3.1888997 0,-0.727025 -0.22295,-1.36305 -0.662675,-1.89215 0.04453,-0.118625 0.07573,-0.24375 0.0936,-0.372775 0.05687,-0.4147 -0.0052,-0.67795 -0.0598,-0.910325 l -0.0088,-0.0377 c -0.05785,-0.247325 -0.1261,-0.421525 -0.129025,-0.428675 l -0.03608,-0.09165 -0.09848,-0.0104 c 0,0 -0.05785,-0.0062 -0.145925,-0.0062 -0.123825,0 -0.3068,0.01202 -0.47645,0.06987 l -0.0637,0.02145 c -0.23205,0.07832 -0.4514246,0.1521 -0.7543246,0.3328 -0.1079,0.06435 -0.22815,0.140075 -0.357825,0.22555 -0.49819,-0.130295 -1.037365,-0.196595 -1.60449,-0.196595 -0.57265,0 -1.116375,0.06663 -1.618175,0.19825 -0.130975,-0.086125 -0.251875,-0.162175 -0.360425,-0.227175 -0.3029,-0.1807 -0.522275,-0.2548 -0.754325,-0.3328 l -0.0637,-0.02145 c -0.169325,-0.057525 -0.352625,-0.069875 -0.47645,-0.069875 -0.088075,0 -0.145925,0.0062 -0.145925,0.0062 l -0.09815,0.0104 -0.036725,0.09197 c -0.00293,0.00713 -0.071175,0.18133 -0.129025,0.428655 l -0.00877,0.0377 c -0.054925,0.232375 -0.117,0.4953 -0.0598,0.91 0.0182,0.132275 0.0507,0.260325 0.09685,0.38155 -0.43128,0.5265 -0.64968,1.159275 -0.64968,1.883375 0,1.853475 0.89895,2.8723497 2.82295,3.1869497 -0.128375,0.19175 -0.218075,0.407875 -0.264225,0.6383 -0.10725,0.04225 -0.204425,0.0702 -0.289575,0.0832 -0.085475,0.013 -0.174525,0.0195 -0.26455,0.0195 -0.22425,0 -0.439725,-0.04193 -0.54925,-0.106925 -0.143,-0.08483 -0.343525,-0.29705 -0.5109,-0.541125 -0.11375,-0.16575 -0.340275,-0.460525 -0.5811,-0.570375 -0.206375,-0.09425 -0.42185,-0.148525 -0.591825,-0.148525 -0.03575,0 -0.06825,0.0026 -0.09685,0.0072 -0.11895,0.01885 -0.2171,0.0819 -0.2691,0.17355 -0.0416,0.0728 -0.048425,0.156975 -0.019175,0.2301 0.058175,0.1456 0.27365,0.27625 0.363675,0.32565 0.108875,0.0598 0.298675,0.2418 0.40755,0.4173 0.081575,0.1313 0.12025,0.226525 0.169325,0.346775 0.027625,0.06792 0.05785,0.142025 0.0988,0.2314 0.107575,0.233675 0.439725,0.4784 0.619125,0.585975 0.24505,0.1469 0.70005,0.18785 0.94965,0.1989 l 0.036075,6e-4 c 0.097175,0 0.26,-0.01463 0.485875,-0.04387 v 1.032525 c 0,0.253175 -0.322075,0.26325 -0.40105,0.26325 -0.010075,0 0.163475,0.0598 0.163475,0.0598 0.637975,0.209295 1.31755,0.326295 2.0254,0.326295 0.70785,0 1.387425,-0.117 2.025075,-0.325975 0,0 0.188825,-0.0663 0.17875,-0.065 z"
     id="path11"
     inkscape:connector-curvature="0"
     style="opacity:0.07000002;stroke-width:0.32499999" />
  <path
     d="m 11.794342,7.5377873 c 0,-0.75075 -0.25415,-1.37345 -0.688025,-1.8616 0.04712,-0.105625 0.0962,-0.247325 0.120575,-0.425425 0.0559,-0.40625 -0.01008,-0.65 -0.06598,-0.88855 -0.0559,-0.23855 -0.121875,-0.40625 -0.121875,-0.40625 0,0 -0.29965,-0.03055 -0.553475,0.0559 -0.253825,0.08645 -0.472225,0.152425 -0.7871496,0.340275 -0.147225,0.08775 -0.295425,0.18395 -0.41275,0.26195 -0.501475,-0.1391 -1.053,-0.2106 -1.633125,-0.2106 -0.585325,0 -1.141725,0.07182 -1.646775,0.2119 -0.117645,-0.078325 -0.26682,-0.175175 -0.41502,-0.263575 -0.314925,-0.18785 -0.533325,-0.253825 -0.78715,-0.340275 -0.253825,-0.08645 -0.553475,-0.0559 -0.553475,-0.0559 0,0 -0.065975,0.1677 -0.121875,0.40625 -0.0559,0.23855 -0.121875,0.4823 -0.065975,0.88855 0.025025,0.18265 0.075725,0.32695 0.12415,0.433225 -0.42575,0.485225 -0.67535,1.104025 -0.67535,1.8538 0,1.944475 1.0504,2.8320497 2.964325,3.0663747 -0.223275,0.23595 -0.3731,0.5382 -0.423475,0.874575 -0.125775,0.05525 -0.270725,0.10725 -0.41015,0.12805 -0.3588,0.05428 -0.738075,0 -0.920725,-0.108225 -0.18265,-0.108225 -0.399425,-0.351975 -0.561925,-0.589225 -0.13715,-0.2002 -0.335075,-0.432575 -0.514475,-0.514475 -0.236925,-0.108225 -0.46735,-0.14885 -0.595725,-0.1287 -0.1287,0.02047 -0.189475,0.11505 -0.1625,0.182975 0.026975,0.0676 0.155675,0.169325 0.2912,0.24375 0.135525,0.07442 0.345475,0.27755 0.46735,0.47385 0.13585,0.21905 0.1625,0.345475 0.27755,0.595725 0.080925,0.17615 0.357825,0.396175 0.5551,0.514475 0.169325,0.101725 0.50765,0.159575 0.8736,0.17615 0.126425,0.0059 0.4251,-0.0312 0.676975,-0.06695 v 1.21875 c 0,0.207675 -0.190125,0.365625 -0.387075,0.329225 0.632125,0.21255 1.30715,0.32045 2.011425,0.32045 0.70395,0 1.378975,-0.1079 2.01175,-0.3198 -0.196625,0.03608 -0.38675,-0.121875 -0.38675,-0.32955 v -1.8863 c 0,-0.431925 -0.171275,-0.82225 -0.446225,-1.113125 1.8999496,-0.22815 2.9630246,-1.0945997 2.9630246,-3.0676747 z M 3.5052174,10.590512 c -0.05005,-0.02567 -0.077025,-0.07313 -0.060125,-0.1066 0.0169,-0.03348 0.0715,-0.03965 0.12155,-0.01398 0.05005,0.02567 0.077025,0.07313 0.060125,0.1066 -0.0169,0.03348 -0.0715,0.03965 -0.12155,0.01398 z m 0.3939,0.245375 c -0.026325,0.0286 -0.082875,0.0195 -0.126425,-0.02015 -0.04355,-0.03965 -0.057525,-0.09523 -0.0312,-0.123825 0.026325,-0.0286 0.082875,-0.0195 0.126425,0.02015 0.04355,0.03965 0.057525,0.09522 0.0312,0.123825 z m 0.24505,0.40625 c -0.03315,0.0234 -0.089375,0.0016 -0.12545,-0.04875 -0.036075,-0.05037 -0.03835,-0.1105 -0.0052,-0.1339 0.03315,-0.0234 0.089375,-0.0016 0.12545,0.04875 0.03575,0.05038 0.03835,0.1105 0.0052,0.1339 z m 0.351975,0.305825 c -0.022425,0.0364 -0.086125,0.03802 -0.142025,0.0039 -0.0559,-0.03412 -0.0832,-0.09132 -0.060775,-0.127725 0.022425,-0.0364 0.086125,-0.03802 0.142025,-0.0039 0.0559,0.03413 0.0832,0.09133 0.060775,0.127725 z m 0.3328,0.299325 c -0.069225,-0.0084 -0.120575,-0.05167 -0.114725,-0.09652 0.00552,-0.04485 0.0663,-0.0741 0.1352,-0.06565 0.069225,0.0084 0.120575,0.05168 0.114725,0.09652 -0.00553,0.04453 -0.065975,0.0741 -0.1352,0.06565 z m 0.536575,0.07767 c -0.073775,-0.0042 -0.1313,-0.04647 -0.128375,-0.09392 0.00292,-0.04745 0.065,-0.08288 0.138775,-0.07865 0.073775,0.0042 0.1313,0.04648 0.128375,0.09392 -0.00292,0.04778 -0.065,0.08288 -0.138775,0.07865 z m 0.50635,-0.0507 c -0.07865,0 -0.14235,-0.04095 -0.14235,-0.09132 0,-0.05038 0.0637,-0.09132 0.14235,-0.09132 0.07865,0 0.14235,0.04095 0.14235,0.09132 0,0.05038 -0.064025,0.09132 -0.14235,0.09132 z"
     id="path13"
     inkscape:connector-curvature="0"
     style="fill:#ffffff;stroke-width:0.32499999" />
</svg>
